<svg width="65" height="65" viewBox="0 0 65 65" fill="none" xmlns="http://www.w3.org/2000/svg">
<path d="M32.5 0C26.0721 0 19.7886 1.90609 14.444 5.47724C9.09938 9.04838 4.93378 14.1242 2.47393 20.0628C0.0140817 26.0014 -0.629527 32.5361 0.624493 38.8404C1.87851 45.1448 4.97384 50.9358 9.51904 55.481C14.0643 60.0262 19.8552 63.1215 26.1596 64.3755C32.464 65.6295 38.9986 64.9859 44.9372 62.5261C50.8758 60.0662 55.9516 55.9006 59.5228 50.556C63.0939 45.2114 65 38.9279 65 32.5C64.9909 23.8833 61.5639 15.622 55.4709 9.52908C49.378 3.43612 41.1168 0.00909943 32.5 0ZM48.6188 18.0594L38.6188 38.0594C38.4963 38.3004 38.3004 38.4963 38.0594 38.6188L18.0594 48.6188C17.8246 48.7367 17.5586 48.7777 17.2992 48.7358C17.0398 48.694 16.8001 48.5715 16.6143 48.3857C16.4285 48.1999 16.306 47.9602 16.2642 47.7008C16.2223 47.4414 16.2633 47.1754 16.3813 46.9406L26.3813 26.9406C26.5037 26.6996 26.6996 26.5037 26.9406 26.3812L46.9406 16.3812C47.1754 16.2633 47.4414 16.2223 47.7008 16.2642C47.9603 16.306 48.1999 16.4285 48.3857 16.6143C48.5715 16.8001 48.694 17.0398 48.7359 17.2992C48.7777 17.5586 48.7367 17.8246 48.6188 18.0594Z" fill="#1E1E1E"/>
</svg>
