<svg width="71" height="55" viewBox="0 0 71 55" fill="none" xmlns="http://www.w3.org/2000/svg">
<path d="M33 20H3C2.65728 20.0007 2.31807 19.931 2.00343 19.7952C1.68879 19.6593 1.40545 19.4602 1.171 19.2102C0.936548 18.9602 0.756002 18.6647 0.640572 18.342C0.525142 18.0193 0.477294 17.6763 0.5 17.3344C0.555295 16.6904 0.852766 16.0914 1.3324 15.6581C1.81203 15.2249 2.43813 14.9897 3.08437 15H30.5C30.8427 15.0007 31.1819 14.931 31.4966 14.7952C31.8112 14.6593 32.0946 14.4602 32.329 14.2102C32.5634 13.9602 32.744 13.6647 32.8594 13.342C32.9749 13.0193 33.0227 12.6763 33 12.3344C32.9447 11.6904 32.6472 11.0914 32.1676 10.6581C31.688 10.2249 31.0619 9.98971 30.4156 9.99999H24.3406C24.16 10.0019 23.9812 9.96466 23.8164 9.89083C23.6516 9.817 23.5047 9.70834 23.3859 9.57232C23.2671 9.4363 23.1792 9.27615 23.1282 9.10291C23.0773 8.92966 23.0644 8.74742 23.0906 8.56874C23.3649 6.6723 24.1782 4.89458 25.4339 3.44714C26.6895 1.9997 28.3346 0.943493 30.1733 0.404208C32.012 -0.135076 33.9669 -0.134729 35.8055 0.40521C37.644 0.945149 39.2887 2.00194 40.5438 3.44983C41.7989 4.89772 42.6116 6.67572 42.8852 8.57227C43.1588 10.4688 42.8817 12.404 42.087 14.1476C41.2922 15.8912 40.0133 17.3697 38.4023 18.4073C36.7913 19.4448 34.9162 19.9976 33 20ZM70.475 19.2844C70.299 16.8241 69.22 14.5157 67.4453 12.8027C65.6705 11.0897 63.3253 10.0931 60.8604 10.0043C58.3954 9.91554 55.9846 10.7409 54.0913 12.3218C52.1979 13.9027 50.9556 16.1275 50.6031 18.5687C50.5769 18.7474 50.5898 18.9297 50.6407 19.1029C50.6917 19.2762 50.7796 19.4363 50.8984 19.5723C51.0172 19.7083 51.1641 19.817 51.3289 19.8908C51.4937 19.9647 51.6725 20.0019 51.8531 20H57.9281C58.5733 19.9913 59.1978 20.2272 59.6761 20.6603C60.1544 21.0934 60.451 21.6915 60.5063 22.3344C60.529 22.6763 60.4811 23.0193 60.3657 23.342C60.2502 23.6647 60.0697 23.9602 59.8353 24.2102C59.6008 24.4602 59.3175 24.6593 59.0028 24.7952C58.6882 24.931 58.349 25.0007 58.0063 25H5.58438C4.93813 24.9897 4.31203 25.2249 3.8324 25.6581C3.35277 26.0914 3.05529 26.6904 3 27.3344C2.97729 27.6763 3.02514 28.0193 3.14057 28.342C3.256 28.6647 3.43655 28.9602 3.671 29.2102C3.90545 29.4602 4.18879 29.6593 4.50343 29.7952C4.81807 29.931 5.15728 30.0007 5.5 30H60.5C61.8736 30.0001 63.2324 29.7172 64.4918 29.169C65.7513 28.6208 66.8842 27.819 67.8201 26.8136C68.756 25.8082 69.4748 24.6208 69.9315 23.3254C70.3883 22.03 70.5733 20.6544 70.475 19.2844ZM43 35H8.08438C7.43813 34.9897 6.81203 35.2249 6.3324 35.6582C5.85277 36.0914 5.5553 36.6904 5.5 37.3344C5.47729 37.6763 5.52514 38.0193 5.64057 38.342C5.756 38.6647 5.93655 38.9602 6.171 39.2102C6.40545 39.4602 6.68879 39.6593 7.00343 39.7952C7.31807 39.931 7.65728 40.0007 8 40H40.4156C41.0608 39.9913 41.6853 40.2272 42.1636 40.6603C42.6419 41.0934 42.9385 41.6915 42.9937 42.3344C43.0165 42.6763 42.9686 43.0193 42.8532 43.342C42.7377 43.6647 42.5572 43.9602 42.3228 44.2102C42.0883 44.4602 41.805 44.6593 41.4903 44.7952C41.1757 44.931 40.8365 45.0007 40.4937 45H34.3406C34.16 44.9981 33.9812 45.0353 33.8164 45.1092C33.6516 45.183 33.5047 45.2916 33.3859 45.4277C33.2671 45.5637 33.1792 45.7238 33.1282 45.8971C33.0773 46.0703 33.0644 46.2526 33.0906 46.4312C33.3649 48.3277 34.1782 50.1054 35.4339 51.5528C36.6895 53.0003 38.3346 54.0565 40.1733 54.5958C42.012 55.1351 43.9669 55.1347 45.8055 54.5948C47.644 54.0548 49.2887 52.998 50.5438 51.5502C51.7989 50.1023 52.6116 48.3243 52.8852 46.4277C53.1588 44.5312 52.8817 42.596 52.087 40.8524C51.2922 39.1088 50.0133 37.6303 48.4023 36.5927C46.7913 35.5552 44.9162 35.0024 43 35Z" fill="#1E1E1E"/>
</svg>
