<svg width="55" height="71" viewBox="0 0 55 71" fill="none" xmlns="http://www.w3.org/2000/svg">
<path d="M27.5 0.5C20.2091 0.508271 13.2192 3.40824 8.0637 8.5637C2.90824 13.7192 0.00827104 20.7091 0 28C0 51.5312 25 69.3031 26.0656 70.0469C26.486 70.3413 26.9868 70.4993 27.5 70.4993C28.0132 70.4993 28.514 70.3413 28.9344 70.0469C30 69.3031 55 51.5312 55 28C54.9917 20.7091 52.0918 13.7192 46.9363 8.5637C41.7808 3.40824 34.7909 0.508271 27.5 0.5ZM27.5 18C29.4778 18 31.4112 18.5865 33.0557 19.6853C34.7002 20.7841 35.9819 22.3459 36.7388 24.1732C37.4957 26.0004 37.6937 28.0111 37.3079 29.9509C36.922 31.8907 35.9696 33.6725 34.5711 35.0711C33.1725 36.4696 31.3907 37.422 29.4509 37.8079C27.5111 38.1937 25.5004 37.9957 23.6732 37.2388C21.8459 36.4819 20.2841 35.2002 19.1853 33.5557C18.0865 31.9112 17.5 29.9778 17.5 28C17.5 25.3478 18.5536 22.8043 20.4289 20.9289C22.3043 19.0536 24.8478 18 27.5 18Z" fill="#1E1E1E"/>
</svg>
