<svg width="71" height="71" viewBox="0 0 71 71" fill="none" xmlns="http://www.w3.org/2000/svg">
<path fill-rule="evenodd" clip-rule="evenodd" d="M51.75 0.5C52.7446 0.5 53.6984 0.895088 54.4016 1.59835C55.1049 2.30161 55.5 3.25544 55.5 4.25V10.5H65.5C66.8261 10.5 68.0979 11.0268 69.0355 11.9645C69.9732 12.9021 70.5 14.1739 70.5 15.5V65.5C70.5 66.8261 69.9732 68.0979 69.0355 69.0355C68.0979 69.9732 66.8261 70.5 65.5 70.5H5.5C4.17392 70.5 2.90215 69.9732 1.96447 69.0355C1.02678 68.0979 0.5 66.8261 0.5 65.5V15.5C0.5 14.1739 1.02678 12.9021 1.96447 11.9645C2.90215 11.0268 4.17392 10.5 5.5 10.5H15.5V4.25C15.5 3.25544 15.8951 2.30161 16.5983 1.59835C17.3016 0.895088 18.2554 0.5 19.25 0.5C20.2446 0.5 21.1984 0.895088 21.9017 1.59835C22.6049 2.30161 23 3.25544 23 4.25V10.5H48V4.25C48 3.25544 48.3951 2.30161 49.0984 1.59835C49.8016 0.895088 50.7554 0.5 51.75 0.5ZM8 33V63H63V33H8ZM8 25.5H63V18H8V25.5ZM46.9 40.35C47.6022 41.0531 47.9967 42.0062 47.9967 43C47.9967 43.9938 47.6022 44.9469 46.9 45.65L35.65 56.9C34.9469 57.6022 33.9938 57.9967 33 57.9967C32.0062 57.9967 31.0531 57.6022 30.35 56.9L24.1 50.65C23.7316 50.3067 23.4361 49.8927 23.2311 49.4327C23.0261 48.9727 22.9159 48.4761 22.907 47.9726C22.8982 47.4691 22.9908 46.969 23.1794 46.502C23.368 46.0351 23.6487 45.6109 24.0048 45.2548C24.3609 44.8987 24.7851 44.618 25.252 44.4294C25.719 44.2408 26.2191 44.1482 26.7226 44.157C27.2261 44.1659 27.7227 44.2761 28.1827 44.4811C28.6427 44.6861 29.0567 44.9816 29.4 45.35L33 48.95L41.6 40.35C42.3031 39.6478 43.2562 39.2533 44.25 39.2533C45.2438 39.2533 46.1969 39.6478 46.9 40.35Z" fill="#1E1E1E"/>
</svg>
