<svg width="57" height="65" viewBox="0 0 57 65" fill="none" xmlns="http://www.w3.org/2000/svg">
<path d="M14.62 8.532C16.4018 5.42839 19.1726 3.01172 22.4895 1.66827C25.8065 0.324816 29.478 0.13216 32.9174 1.12109C36.3567 2.11003 39.3652 4.22345 41.462 7.12354C43.5588 10.0236 44.6228 13.543 44.4839 17.1189C44.345 20.6949 43.0113 24.1211 40.6959 26.8499C38.3806 29.5786 35.2172 31.4524 31.7115 32.1716C28.2059 32.8908 24.5603 32.414 21.3575 30.8174C18.1547 29.2207 15.5797 26.5964 14.044 23.364C13.018 24.1146 11.7792 24.5181 10.508 24.516H8.508V25.536C8.508 26.296 8.796 26.988 9.268 27.512C9.67134 27.056 10.204 26.7338 10.7951 26.5881C11.3862 26.4424 12.0076 26.4803 12.5766 26.6966C13.1456 26.9129 13.6353 27.2974 13.9803 27.799C14.3253 28.3005 14.5094 28.8952 14.508 29.504C14.5077 29.9221 14.42 30.3355 14.2506 30.7177C14.0812 31.0999 13.8337 31.4424 13.5241 31.7234C13.2146 32.0043 12.8497 32.2175 12.4529 32.3492C12.0561 32.4808 11.6361 32.5281 11.22 32.488C9.41846 32.4248 7.71183 31.6646 6.45974 30.3678C5.20766 29.0709 4.50793 27.3386 4.508 25.536V10.528C4.508 9.99757 4.71871 9.48886 5.09379 9.11378C5.46886 8.73871 5.97757 8.528 6.508 8.528H14.508L14.62 8.532ZM8.508 20.516H10.508C11.0384 20.516 11.5471 20.3053 11.9222 19.9302C12.2973 19.5551 12.508 19.0464 12.508 18.516V17.036C12.4963 16.6788 12.4963 16.3212 12.508 15.964V12.528H8.508V20.516ZM0.5 44.5C0.5 40.048 4.112 36.5 8.536 36.5H48.5C50.6217 36.5 52.6566 37.3429 54.1569 38.8431C55.6571 40.3434 56.5 42.3783 56.5 44.5C56.5 51.264 53.168 56.364 47.96 59.688C42.832 62.956 35.92 64.5 28.5 64.5C21.08 64.5 14.168 62.956 9.04 59.688C3.832 56.368 0.5 51.26 0.5 44.5Z" fill="#1E1E1E"/>
</svg>
