<svg width="81" height="81" viewBox="0 0 81 81" fill="none" xmlns="http://www.w3.org/2000/svg">
<path d="M1.96712 32.0559L17.0771 16.944C18.0108 16.0136 19.2752 15.4912 20.5934 15.4912C21.9115 15.4912 23.1759 16.0136 24.1096 16.944L36.6606 29.5092L38.2062 27.9611C36.3175 23.8013 35.4114 19.2628 35.5579 14.6967C35.7044 10.1306 36.8996 5.65948 39.051 1.62935C39.7543 0.301224 41.6126 0.130127 42.6773 1.19231L59.477 17.9915L62.2582 15.2103C62.1484 14.8025 62.0067 14.429 62.0067 13.9918C62.0067 13.0028 62.2999 12.0359 62.8494 11.2136C63.3989 10.3912 64.1799 9.75024 65.0937 9.37174C66.0074 8.99324 67.0129 8.8942 67.983 9.08714C68.953 9.28008 69.8441 9.75635 70.5435 10.4557C71.2428 11.1551 71.7191 12.0461 71.9121 13.0161C72.1051 13.9862 72.0061 14.9917 71.6276 15.9055C71.2491 16.8192 70.6082 17.6003 69.7858 18.1498C68.9635 18.6993 67.9966 18.9926 67.0076 18.9926C66.5704 18.9926 66.1968 18.8509 65.789 18.7411L63.0077 21.5223L79.8077 38.3214C80.8699 39.3861 80.699 41.2295 79.3706 41.9473C75.3403 44.0986 70.869 45.2938 66.3028 45.4403C61.7366 45.5868 57.198 44.6807 53.0381 42.7922L51.507 44.3232L64.0554 56.8884C64.9856 57.8251 65.5077 59.0917 65.5077 60.4118C65.5077 61.732 64.9856 62.9986 64.0554 63.9353L48.9431 79.0472C48.482 79.5097 47.9339 79.8762 47.3303 80.1256C46.7267 80.3749 46.0797 80.5022 45.4267 80.5C44.1039 80.5018 42.8343 79.9794 41.8959 79.0472L29.3449 66.499L21.8754 73.9829C20.8907 74.9668 19.5557 75.5194 18.1638 75.5194C16.7718 75.5194 15.4368 74.9668 14.4521 73.9829L7.029 66.5601C6.0462 65.575 5.49426 64.2402 5.49426 62.8486C5.49426 61.4571 6.0462 60.1223 7.029 59.1372L14.4985 51.6533L1.9501 39.0881C1.48885 38.6256 1.12334 38.0766 0.874527 37.4727C0.62571 36.8687 0.498459 36.2216 0.500053 35.5684C0.501656 34.9152 0.632072 34.2688 0.883835 33.666C1.1356 33.0633 1.50362 32.5162 1.96712 32.0559ZM46.1934 49.6511L34.6582 61.1859L45.4267 71.9515L56.9595 60.4192L46.1934 49.6511ZM9.04603 35.572L19.812 46.3401L31.3471 34.8053L20.5787 24.0397L9.04603 35.572Z" fill="#1E1E1E"/>
</svg>
