<svg width="75" height="71" viewBox="0 0 75 71" fill="none" xmlns="http://www.w3.org/2000/svg">
<mask id="mask0_6_1112" style="mask-type:luminance" maskUnits="userSpaceOnUse" x="0" y="0" width="75" height="71">
<path d="M27.9733 67.4517C22.4601 65.8056 17.4669 62.7601 13.48 58.6117C14.7628 57.0902 15.5624 55.2206 15.7766 53.2421C15.9908 51.2636 15.6098 49.2661 14.6824 47.5054C13.7549 45.7446 12.3232 44.3006 10.5704 43.3582C8.81768 42.4157 6.82357 42.0177 4.8433 42.215C4.39216 40.0052 4.16545 37.7554 4.16663 35.5C4.16663 32.0167 4.69996 28.6567 5.6933 25.5H5.8333C7.53289 25.5005 9.20458 25.0679 10.6905 24.2429C12.1765 23.4179 13.4276 22.2278 14.3258 20.785C15.2241 19.3421 15.7398 17.6942 15.8242 15.9967C15.9086 14.2992 15.559 12.6082 14.8083 11.0833C18.7159 7.4447 23.4417 4.79971 28.5866 3.37167C29.4239 5.01567 30.6997 6.39599 32.2728 7.35992C33.8459 8.32384 35.655 8.83379 37.5 8.83333C39.3449 8.83379 41.154 8.32384 42.7271 7.35992C44.3002 6.39599 45.576 5.01567 46.4133 3.37167C51.5582 4.79971 56.284 7.4447 60.1916 11.0833C59.4355 12.6189 59.0862 14.3227 59.177 16.0319C59.2679 17.7411 59.7959 19.3984 60.7106 20.845C61.6253 22.2917 62.896 23.4794 64.4011 24.2945C65.9061 25.1095 67.5952 25.5246 69.3066 25.5C70.3216 28.7362 70.8364 32.1084 70.8333 35.5C70.8333 37.8 70.6 40.0467 70.1566 42.2167C68.1764 42.0194 66.1823 42.4174 64.4295 43.3599C62.6767 44.3023 61.245 45.7463 60.3176 47.507C59.3901 49.2678 59.0091 51.2652 59.2233 53.2437C59.4375 55.2223 60.2372 57.0919 61.52 58.6133C57.5328 62.7612 52.5397 65.8061 47.0266 67.4517C46.3792 65.4338 45.1078 63.6737 43.3957 62.4249C41.6836 61.1761 39.6191 60.5032 37.5 60.5032C35.3808 60.5032 33.3164 61.1761 31.6042 62.4249C29.8921 63.6737 28.6207 65.4338 27.9733 67.4517Z" fill="white" stroke="white" stroke-width="6.66667" stroke-linejoin="round"/>
<path d="M37.4999 47.1667C39.032 47.1667 40.5491 46.8649 41.9646 46.2786C43.38 45.6923 44.6661 44.8329 45.7495 43.7496C46.8328 42.6662 47.6922 41.3801 48.2785 39.9646C48.8648 38.5492 49.1666 37.0321 49.1666 35.5C49.1666 33.9679 48.8648 32.4508 48.2785 31.0354C47.6922 29.6199 46.8328 28.3338 45.7495 27.2504C44.6661 26.1671 43.38 25.3077 41.9646 24.7214C40.5491 24.1351 39.032 23.8333 37.4999 23.8333C34.4057 23.8333 31.4383 25.0625 29.2503 27.2504C27.0624 29.4383 25.8333 32.4058 25.8333 35.5C25.8333 38.5942 27.0624 41.5617 29.2503 43.7496C31.4383 45.9375 34.4057 47.1667 37.4999 47.1667Z" fill="black" stroke="black" stroke-width="6.66667" stroke-linejoin="round"/>
</mask>
<g mask="url(#mask0_6_1112)">
<path d="M-2.5 -4.5H77.5V75.5H-2.5V-4.5Z" fill="#1E1E1E"/>
</g>
</svg>
