<svg width="67" height="61" viewBox="0 0 67 61" fill="none" xmlns="http://www.w3.org/2000/svg">
<path d="M42.68 23.8333C45.9 23.8333 48.5133 26.4467 48.5133 29.6667V45.4967C48.5133 49.4758 46.9326 53.292 44.1189 56.1056C41.3052 58.9193 37.4891 60.5 33.51 60.5C29.5308 60.5 25.7147 58.9193 22.901 56.1056C20.0873 53.292 18.5066 49.4758 18.5066 45.4967V29.6667C18.5066 26.4467 21.1166 23.8333 24.34 23.8333H42.68ZM17.27 23.8333C16.0694 25.2782 15.3472 27.0603 15.2033 28.9333L15.17 29.6667V45.4967C15.17 48.32 15.81 50.9933 16.95 53.38C14.9742 53.9086 12.9034 53.9756 10.8976 53.576C8.89181 53.1765 7.00479 52.3209 5.38245 51.0756C3.76011 49.8302 2.44592 48.2284 1.5415 46.3941C0.637085 44.5597 0.166667 42.5419 0.166626 40.4967V29.6667C0.166681 28.2027 0.717196 26.7923 1.70889 25.7154C2.70059 24.6385 4.06096 23.9738 5.51996 23.8533L5.99996 23.8333H17.27ZM49.75 23.8333H61C64.22 23.8333 66.8333 26.4467 66.8333 29.6667V40.5C66.8337 42.5439 66.3643 44.5605 65.4613 46.3941C64.5582 48.2276 63.2457 49.829 61.6252 51.0746C60.0046 52.3201 58.1195 53.1764 56.1153 53.5773C54.1111 53.9782 52.0416 53.913 50.0666 53.3867C51.0666 51.2933 51.68 48.9867 51.8166 46.5467L51.8466 45.4967V29.6667C51.8466 27.45 51.0633 25.4167 49.75 23.8333ZM33.5 0.5C36.1521 0.5 38.6957 1.55357 40.571 3.42893C42.4464 5.3043 43.5 7.84784 43.5 10.5C43.5 13.1522 42.4464 15.6957 40.571 17.5711C38.6957 19.4464 36.1521 20.5 33.5 20.5C30.8478 20.5 28.3043 19.4464 26.4289 17.5711C24.5535 15.6957 23.5 13.1522 23.5 10.5C23.5 7.84784 24.5535 5.3043 26.4289 3.42893C28.3043 1.55357 30.8478 0.5 33.5 0.5ZM55.1666 3.83333C57.3768 3.83333 59.4964 4.71131 61.0592 6.27411C62.622 7.83691 63.5 9.95653 63.5 12.1667C63.5 14.3768 62.622 16.4964 61.0592 18.0592C59.4964 19.622 57.3768 20.5 55.1666 20.5C52.9565 20.5 50.8369 19.622 49.2741 18.0592C47.7113 16.4964 46.8333 14.3768 46.8333 12.1667C46.8333 9.95653 47.7113 7.83691 49.2741 6.27411C50.8369 4.71131 52.9565 3.83333 55.1666 3.83333ZM11.8333 3.83333C14.0434 3.83333 16.163 4.71131 17.7258 6.27411C19.2887 7.83691 20.1666 9.95653 20.1666 12.1667C20.1666 14.3768 19.2887 16.4964 17.7258 18.0592C16.163 19.622 14.0434 20.5 11.8333 20.5C9.62315 20.5 7.50354 19.622 5.94074 18.0592C4.37793 16.4964 3.49996 14.3768 3.49996 12.1667C3.49996 9.95653 4.37793 7.83691 5.94074 6.27411C7.50354 4.71131 9.62315 3.83333 11.8333 3.83333Z" fill="#1E1E1E"/>
</svg>
